<svg width="24" height="24" viewBox="0 0 24 24" fill="none" xmlns="http://www.w3.org/2000/svg">
<path fill-rule="evenodd" clip-rule="evenodd" d="M12 24C5.37258 24 0 18.6274 0 12C0 5.37258 5.37258 0 12 0C18.6274 0 24 5.37258 24 12C24 18.6274 18.6274 24 12 24ZM14.5648 12.1338L7.34276 4.817C7.04446 4.8844 6.8 5.14591 6.8 5.67153V18.6215C6.8 19.1165 6.99231 19.4647 7.34793 19.4994L14.5648 12.1338ZM14.8913 11.7856L16.8212 9.83079C16.8212 9.83079 8.43458 5.19623 7.93251 4.91878C7.73952 4.81211 7.52912 4.77488 7.34288 4.81689L14.8913 11.7856ZM15.2231 12.1217L17.4009 14.1023C17.4009 14.1023 19.8675 12.7348 19.9731 12.6761C20.3292 12.4787 20.7022 11.975 19.9731 11.5723C19.7879 11.4698 17.4122 10.1573 17.4122 10.1573L15.2231 12.1217ZM7.34805 19.4994C7.51102 19.5203 7.70704 19.4766 7.93251 19.3516C8.39929 19.0929 13.4122 16.3135 16.8233 14.4223L14.8913 12.4263L7.34805 19.4994Z" fill="#0B0B0B"/>
</svg>
