<svg width="17" height="14" viewBox="0 0 17 14" fill="none" xmlns="http://www.w3.org/2000/svg">
<path d="M8.79289 0.292893C9.18342 -0.0976311 9.81658 -0.0976311 10.2071 0.292893L16.2071 6.29289C16.3946 6.48043 16.5 6.73478 16.5 7C16.5 7.26522 16.3946 7.51957 16.2071 7.70711L10.2071 13.7071C9.81658 14.0976 9.18342 14.0976 8.79289 13.7071C8.40237 13.3166 8.40237 12.6834 8.79289 12.2929L13.0858 8L1.5 8C0.947715 8 0.5 7.55229 0.5 7C0.5 6.44772 0.947715 6 1.5 6L13.0858 6L8.79289 1.70711C8.40237 1.31658 8.40237 0.683417 8.79289 0.292893Z" fill="white"/>
</svg>
