<svg width="368" height="70" viewBox="0 0 368 70" fill="none" xmlns="http://www.w3.org/2000/svg">
<g clip-path="url(#clip0_192_197)">
<path d="M50.9714 66.6359C67.9978 66.6124 85.013 67.5107 101.943 69.3268C85.3008 64.9781 68.1689 62.802 50.9714 62.8524C33.774 62.802 16.642 64.9781 0 69.3268C16.9298 67.5107 33.9451 66.6124 50.9714 66.6359Z" fill="white"/>
<path d="M19.1328 40.0513H5.75426C6.91152 54.2492 10.8718 65.6276 20.4062 65.6276H35.5707C24.0782 65.6276 20.7305 52.7712 19.1328 40.0513Z" fill="url(#paint0_linear_192_197)"/>
<path d="M5.75426 40.0513C6.91152 54.2492 10.8718 65.6276 20.4062 65.6276H17.0185C8.56131 65.6276 4.60501 53.45 3.00327 40.0513H5.75426Z" fill="white"/>
<path d="M81.0681 47.5582L84.7562 47.6546C84.7041 52.4743 83.5068 63.8366 71.4417 65.6279H64.3179C81.3204 64.5756 81.7689 54.4062 81.829 49.2853L77.0598 49.1728L90.2021 30.7817L81.0681 47.5582Z" fill="white"/>
<path d="M57.3423 33.3961L61.0304 33.5728C60.9783 42.4089 59.7289 62.3342 46.1502 65.6276H40.3879C57.3904 63.6877 57.8389 44.9874 57.8989 35.569L53.1298 35.3641L66.2721 15.3906L57.3423 33.3961Z" fill="white"/>
<path d="M90.2021 30.7817L81.0681 47.5582L84.7562 47.6546C84.7041 52.4743 83.5068 63.8366 71.4417 65.6279H82.8701C94.691 65.146 97.9345 56.4465 98.1828 49.0162L102.988 48.9599L90.2021 30.7817Z" fill="url(#paint1_linear_192_197)"/>
<path d="M79.07 34.9745L66.256 15.3906L57.3263 33.3961L61.0143 33.5728C60.9623 42.4089 59.7129 62.3342 46.1342 65.6276H58.9241C70.7449 64.74 73.9884 48.7387 74.2367 35.075L79.07 34.9745Z" fill="url(#paint2_linear_192_197)"/>
<path d="M55.7166 19.7847L42.9026 0L34.6497 12.8163L42.9187 0.00401725L33.7847 17.9412L37.4727 18.2023C37.4167 31.4242 37.0202 61.0291 21.8998 65.6278H35.5907C47.4155 64.2984 50.6591 40.3687 50.9073 19.9374L55.7166 19.7847Z" fill="url(#paint3_linear_192_197)"/>
<path d="M33.7847 17.9412L37.4727 18.2023C37.4167 31.4242 37.0203 61.0291 21.8998 65.6278H17.0305C34.037 62.728 34.4855 34.7619 34.5416 20.6724L29.7764 20.3711L42.9187 0L33.7847 17.9412Z" fill="white"/>
</g>
<path d="M322.683 60.1785L338.522 35.2877L322.786 10.7734H334.983L345.324 28.0635H345.943L356.387 10.7734H368L351.68 35.4589L367.76 60.1785H355.941L345.29 43.4363H344.672L333.883 60.1785H322.683Z" fill="white"/>
<path d="M301.004 29.2273C298.69 29.2273 296.778 29.9691 295.266 31.4528C293.777 32.9364 292.941 34.8994 292.758 37.3417H308.906C308.791 34.8309 308.024 32.8565 306.604 31.4185C305.207 29.9577 303.34 29.2273 301.004 29.2273ZM309.112 49.4276H318.423C317.667 53.0111 315.743 55.8415 312.651 57.9186C309.581 59.9728 305.733 61 301.107 61C295.335 61 290.834 59.2881 287.604 55.8643C284.375 52.4177 282.76 47.6244 282.76 41.4844C282.76 35.3445 284.386 30.4941 287.639 26.9334C290.891 23.3726 295.335 21.5923 300.969 21.5923C306.558 21.5923 310.91 23.2699 314.025 26.6252C317.163 29.9805 318.732 34.6597 318.732 40.6627V43.7099H292.724V44.2234C292.792 47.0309 293.594 49.2564 295.129 50.8998C296.686 52.5204 298.77 53.3307 301.382 53.3307C303.351 53.3307 305 52.9997 306.329 52.3378C307.657 51.653 308.585 50.683 309.112 49.4276Z" fill="white"/>
<path d="M252.354 60.7604C247.59 60.7604 243.822 59.0143 241.051 55.522C238.302 52.0298 236.928 47.2707 236.928 41.2449C236.928 35.2419 238.302 30.5056 241.051 27.0362C243.822 23.5439 247.59 21.7978 252.354 21.7978C254.919 21.7978 257.198 22.3913 259.191 23.5782C261.184 24.7423 262.673 26.3629 263.657 28.4399H264.242V8H274.239V60.1784H264.551V54.2552H263.932C262.925 56.2867 261.401 57.8844 259.363 59.0485C257.324 60.1898 254.988 60.7604 252.354 60.7604ZM262.043 33.1648C260.508 31.1561 258.412 30.1518 255.755 30.1518C253.098 30.1518 251.003 31.1447 249.468 33.1305C247.956 35.0935 247.2 37.8097 247.2 41.2791C247.2 44.7714 247.956 47.5104 249.468 49.4962C250.98 51.4591 253.076 52.4406 255.755 52.4406C258.435 52.4406 260.531 51.4591 262.043 49.4962C263.577 47.5104 264.345 44.7828 264.345 41.3133C264.345 37.8667 263.577 35.1506 262.043 33.1648Z" fill="white"/>
<path d="M210.954 53.2622C213.267 53.2622 215.203 52.6117 216.76 51.3107C218.318 50.0096 219.097 48.4005 219.097 46.4831V43.7099L211.435 44.1892C207.175 44.4859 205.045 46.0038 205.045 48.7428C205.045 50.1352 205.583 51.2422 206.659 52.0639C207.759 52.8628 209.19 53.2622 210.954 53.2622ZM207.656 60.7603C203.991 60.7603 201.002 59.7218 198.689 57.6447C196.398 55.5676 195.253 52.8171 195.253 49.3934C195.253 45.9924 196.513 43.3219 199.032 41.3817C201.575 39.4188 205.205 38.3003 209.923 38.0264L219.097 37.4786V34.3972C219.097 32.8223 218.547 31.6125 217.448 30.768C216.348 29.9007 214.768 29.467 212.706 29.467C208.996 29.467 206.717 30.6311 205.869 32.9592H196.662C196.982 29.467 198.631 26.7051 201.609 24.6737C204.609 22.6194 208.492 21.5923 213.256 21.5923C218.249 21.5923 222.109 22.7107 224.834 24.9476C227.583 27.1845 228.957 30.3343 228.957 34.3972V60.1783H219.268V55.248H218.65C217.665 56.9827 216.199 58.3408 214.252 59.3223C212.305 60.281 210.107 60.7603 207.656 60.7603Z" fill="white"/>
<path d="M167.321 60.1784V22.4141H177.009V28.44H177.628C178.132 26.5227 179.277 24.9363 181.063 23.6809C182.873 22.4255 184.969 21.7979 187.351 21.7979C189.069 21.7979 190.374 21.9576 191.267 22.2772V31.3502C190.214 30.9393 188.633 30.7339 186.526 30.7339C183.755 30.7339 181.521 31.4986 179.826 33.0278C178.154 34.5571 177.318 36.6342 177.318 39.2591V60.1784H167.321Z" fill="white"/>
<path d="M148.252 60.1785H137.877V19.6068H123V10.7734H163.129V19.6068H148.252V60.1785Z" fill="white"/>
<defs>
<linearGradient id="paint0_linear_192_197" x1="20.6625" y1="65.6276" x2="20.6625" y2="40.0513" gradientUnits="userSpaceOnUse">
<stop stop-color="#88290A"/>
<stop offset="1" stop-color="#FD652C"/>
</linearGradient>
<linearGradient id="paint1_linear_192_197" x1="87.2148" y1="65.6279" x2="87.2148" y2="30.7817" gradientUnits="userSpaceOnUse">
<stop stop-color="#88290A"/>
<stop offset="1" stop-color="#FD652C"/>
</linearGradient>
<linearGradient id="paint2_linear_192_197" x1="62.6021" y1="65.6276" x2="62.6021" y2="15.3906" gradientUnits="userSpaceOnUse">
<stop stop-color="#88290A"/>
<stop offset="1" stop-color="#FD652C"/>
</linearGradient>
<linearGradient id="paint3_linear_192_197" x1="38.8082" y1="65.6278" x2="38.8082" y2="0" gradientUnits="userSpaceOnUse">
<stop stop-color="#88290A"/>
<stop offset="1" stop-color="#FD652C"/>
</linearGradient>
<clipPath id="clip0_192_197">
<rect width="103" height="69.3269" fill="white"/>
</clipPath>
</defs>
</svg>
