<svg width="320" height="61" viewBox="0 0 320 61" fill="none" xmlns="http://www.w3.org/2000/svg">
<g clip-path="url(#clip0_192_134)">
<path d="M44.323 57.9443C59.1285 57.9239 73.9244 58.705 88.646 60.2843C74.1747 56.5028 59.2773 54.6105 44.323 54.6543C29.3687 54.6105 14.4713 56.5028 0 60.2843C14.7216 58.705 29.5174 57.9239 44.323 57.9443Z" fill="white"/>
<path d="M16.6372 34.8274H5.00371C6.01002 47.1734 9.45376 57.0677 17.7445 57.0677H30.931C20.9376 57.0677 18.0266 45.8881 16.6372 34.8274Z" fill="url(#paint0_linear_192_134)"/>
<path d="M5.00371 34.8274C6.01002 47.1734 9.45376 57.0677 17.7445 57.0677H14.7987C7.44463 57.0677 4.00436 46.4784 2.61154 34.8274H5.00371Z" fill="white"/>
<path d="M70.494 41.3549L73.701 41.4387C73.6558 45.6297 72.6146 55.51 62.1232 57.0677H55.9286C70.7134 56.1526 71.1034 47.3096 71.1556 42.8566L67.0085 42.7588L78.4366 26.7666L70.494 41.3549Z" fill="white"/>
<path d="M49.8629 29.0403L53.0699 29.1939C53.0246 36.8775 51.9382 54.2038 40.1306 57.0677H35.1199C49.9047 55.3808 50.2947 39.1196 50.3469 30.9297L46.1998 30.7516L57.6279 13.3833L49.8629 29.0403Z" fill="white"/>
<path d="M78.4366 26.7666L70.494 41.3549L73.701 41.4387C73.6557 45.6297 72.6146 55.51 62.1232 57.0677H72.061C82.34 56.6486 85.1604 49.0838 85.3763 42.6226L89.5548 42.5737L78.4366 26.7666Z" fill="url(#paint1_linear_192_134)"/>
<path d="M68.7565 30.4128L57.614 13.3833L49.849 29.0403L53.056 29.1939C53.0107 36.8775 51.9243 54.2038 40.1167 57.0677H51.2383C61.5173 56.2958 64.3378 42.3817 64.5537 30.5001L68.7565 30.4128Z" fill="url(#paint2_linear_192_134)"/>
<path d="M48.4492 17.2041L37.3067 -1.90735e-06L30.1302 11.1446L37.3206 0.00349135L29.378 15.6011L32.585 15.8281C32.5363 27.3254 32.1915 53.0687 19.0433 57.0677H30.9484C41.2309 55.9116 44.0514 35.1033 44.2673 17.3368L48.4492 17.2041Z" fill="url(#paint3_linear_192_134)"/>
<path d="M29.378 15.6011L32.585 15.8281C32.5362 27.3254 32.1915 53.0687 19.0433 57.0677H14.8091C29.5974 54.5461 29.9874 30.2277 30.0361 17.976L25.8925 17.714L37.3206 -1.90735e-06L29.378 15.6011Z" fill="white"/>
</g>
<path d="M280.594 52.3292L294.367 30.6849L280.684 9.3682H291.289L300.282 24.403H300.82L309.902 9.3682H320L305.809 30.8338L319.791 52.3292H309.514L300.252 37.7707H299.714L290.333 52.3292H280.594Z" fill="white"/>
<path d="M261.742 25.4151C259.731 25.4151 258.068 26.0601 256.753 27.3503C255.458 28.6404 254.731 30.3473 254.572 32.471H268.614C268.514 30.2878 267.847 28.5709 266.612 27.3205C265.397 26.0502 263.774 25.4151 261.742 25.4151ZM268.793 42.9805H276.889C276.232 46.0967 274.559 48.5578 271.87 50.364C269.201 52.1503 265.855 53.0435 261.832 53.0435C256.813 53.0435 252.899 51.5549 250.091 48.5777C247.282 45.5806 245.878 41.4126 245.878 36.0735C245.878 30.7343 247.292 26.5166 250.121 23.4204C252.949 20.3241 256.813 18.7759 261.712 18.7759C266.572 18.7759 270.356 20.2348 273.065 23.1524C275.794 26.0701 277.158 30.1389 277.158 35.3589V38.0086H254.542V38.4552C254.602 40.8965 255.299 42.8317 256.633 44.2607C257.988 45.67 259.8 46.3746 262.071 46.3746C263.784 46.3746 265.218 46.0868 266.373 45.5112C267.528 44.9157 268.335 44.0722 268.793 42.9805Z" fill="white"/>
<path d="M219.438 52.8351C215.295 52.8351 212.019 51.3168 209.609 48.28C207.219 45.2433 206.024 41.105 206.024 35.8651C206.024 30.6451 207.219 26.5266 209.609 23.5097C212.019 20.473 215.295 18.9546 219.438 18.9546C221.669 18.9546 223.651 19.4707 225.384 20.5028C227.116 21.515 228.411 22.9242 229.267 24.7304H229.775V6.95652H238.469V52.329H230.044V47.1785H229.506C228.63 48.9449 227.306 50.3343 225.533 51.3465C223.76 52.3389 221.729 52.8351 219.438 52.8351ZM227.863 28.8389C226.529 27.0923 224.706 26.219 222.396 26.219C220.086 26.219 218.263 27.0824 216.929 28.8092C215.614 30.5161 214.957 32.878 214.957 35.8949C214.957 38.9316 215.614 41.3134 216.929 43.0402C218.243 44.7471 220.066 45.6005 222.396 45.6005C224.726 45.6005 226.549 44.7471 227.863 43.0402C229.198 41.3134 229.865 38.9415 229.865 35.9247C229.865 32.9276 229.198 30.5657 227.863 28.8389Z" fill="white"/>
<path d="M183.438 46.315C185.45 46.315 187.133 45.7493 188.487 44.618C189.842 43.4867 190.519 42.0874 190.519 40.4202V38.0086L183.857 38.4254C180.152 38.6835 178.3 40.0034 178.3 42.3851C178.3 43.5958 178.768 44.5585 179.704 45.273C180.66 45.9677 181.905 46.315 183.438 46.315ZM180.57 52.8351C177.384 52.8351 174.784 51.932 172.773 50.1258C170.781 48.3197 169.785 45.928 169.785 42.9508C169.785 39.9934 170.881 37.6712 173.071 35.9841C175.282 34.2772 178.439 33.3047 182.542 33.0665L190.519 32.5901V29.9107C190.519 28.5411 190.041 27.4892 189.085 26.7548C188.129 26.0006 186.755 25.6235 184.962 25.6235C181.735 25.6235 179.754 26.6357 179.017 28.6602H171.01C171.289 25.6235 172.723 23.2219 175.312 21.4554C177.921 19.6691 181.297 18.7759 185.44 18.7759C189.782 18.7759 193.138 19.7485 195.508 21.6936C197.898 23.6387 199.093 26.3777 199.093 29.9107V52.329H190.668V48.0418H190.13C189.274 49.5502 187.999 50.7312 186.306 51.5847C184.613 52.4183 182.701 52.8351 180.57 52.8351Z" fill="white"/>
<path d="M145.496 52.3289V19.4904H153.921V24.7303H154.459C154.897 23.0631 155.893 21.6836 157.446 20.592C159.02 19.5003 160.842 18.9545 162.914 18.9545C164.407 18.9545 165.543 19.0935 166.319 19.3713V27.2609C165.403 26.9036 164.029 26.725 162.197 26.725C159.787 26.725 157.845 27.3899 156.371 28.7197C154.917 30.0496 154.19 31.8557 154.19 34.1382V52.3289H145.496Z" fill="white"/>
<path d="M128.915 52.3292H119.893V17.0494H106.956V9.3682H141.851V17.0494H128.915V52.3292Z" fill="white"/>
<defs>
<linearGradient id="paint0_linear_192_134" x1="17.9674" y1="57.0677" x2="17.9674" y2="34.8274" gradientUnits="userSpaceOnUse">
<stop stop-color="#88290A"/>
<stop offset="1" stop-color="#FD652C"/>
</linearGradient>
<linearGradient id="paint1_linear_192_134" x1="75.839" y1="57.0677" x2="75.839" y2="26.7666" gradientUnits="userSpaceOnUse">
<stop stop-color="#88290A"/>
<stop offset="1" stop-color="#FD652C"/>
</linearGradient>
<linearGradient id="paint2_linear_192_134" x1="54.4366" y1="57.0677" x2="54.4366" y2="13.3833" gradientUnits="userSpaceOnUse">
<stop stop-color="#88290A"/>
<stop offset="1" stop-color="#FD652C"/>
</linearGradient>
<linearGradient id="paint3_linear_192_134" x1="33.7463" y1="57.0677" x2="33.7463" y2="-1.90735e-06" gradientUnits="userSpaceOnUse">
<stop stop-color="#88290A"/>
<stop offset="1" stop-color="#FD652C"/>
</linearGradient>
<clipPath id="clip0_192_134">
<rect width="89.5652" height="60.2843" fill="white"/>
</clipPath>
</defs>
</svg>
