<svg width="24" height="24" viewBox="0 0 24 24" fill="none" xmlns="http://www.w3.org/2000/svg">
<path fill-rule="evenodd" clip-rule="evenodd" d="M0 12C0 5.37258 5.37258 0 12 0C18.6274 0 24 5.37258 24 12C24 18.6274 18.6274 24 12 24C5.37258 24 0 18.6274 0 12ZM13.9536 7.08073C14.4118 6.48928 14.7591 5.65331 14.6335 4.8C13.8846 4.85204 13.0093 5.33115 12.4986 5.95565C12.033 6.52149 11.6504 7.36324 11.7998 8.18021C12.6185 8.20582 13.4634 7.71514 13.9536 7.08073ZM18 15.1075C15.6171 14.2013 15.2353 10.8137 17.5936 9.51346C16.8743 8.61141 15.8635 8.08852 14.9094 8.08852C13.6489 8.08852 13.1161 8.69153 12.2408 8.69153C11.3384 8.69153 10.6527 8.09017 9.56312 8.09017C8.49239 8.09017 7.3527 8.7444 6.63012 9.86288C5.61441 11.4382 5.78766 14.3996 7.43481 16.9223C8.02354 17.8252 8.81016 18.8396 9.83901 18.8487C10.7545 18.8578 11.0132 18.2614 12.2539 18.2547C13.4946 18.2473 13.7302 18.8561 14.6441 18.8462C15.6738 18.8379 16.5039 17.7137 17.0927 16.8108C17.5147 16.164 17.6724 15.8377 18 15.1075Z" fill="#0B0B0B"/>
</svg>
