<svg width="22" height="22" viewBox="0 0 22 22" fill="none" xmlns="http://www.w3.org/2000/svg">
<path d="M2.99278 2.84033H7.48272L8.92994 6.45836L6.60506 8.00828C6.32686 8.19375 6.15976 8.50598 6.15976 8.84033C6.1623 8.93396 6.15976 8.84133 6.15976 8.84133L6.15976 8.84238L6.15977 8.84462L6.1598 8.84966L6.15994 8.862C6.16009 8.87122 6.16034 8.88241 6.16076 8.89552C6.16161 8.92174 6.16314 8.95563 6.16588 8.99669C6.17135 9.07879 6.18167 9.18977 6.20106 9.3255C6.23981 9.5968 6.31503 9.96844 6.46107 10.4066C6.75431 11.2863 7.33049 12.4253 8.45265 13.5474C9.57481 14.6696 10.7138 15.2458 11.5935 15.539C12.0316 15.6851 12.4033 15.7603 12.6746 15.799C12.8103 15.8184 12.9213 15.8287 13.0034 15.8342C13.0445 15.8369 13.0784 15.8385 13.1046 15.8393C13.1177 15.8397 13.1289 15.84 13.1381 15.8401L13.1504 15.8403L13.1555 15.8403L13.1577 15.8403L13.1588 15.8403C13.1588 15.8403 13.2704 15.8342 13.1598 15.8403C13.5385 15.8403 13.8848 15.6263 14.0542 15.2875L14.7239 13.9481L19.1598 14.6875V19.0073C17.0487 19.3126 11.3472 19.6135 6.86686 15.1332C2.38656 10.6529 2.68748 4.95143 2.99278 2.84033ZM8.2334 9.32642L10.0393 8.12246C10.8263 7.59784 11.1381 6.59371 10.7869 5.71558L9.33968 2.09755C9.03595 1.33823 8.30053 0.840332 7.48272 0.840332H2.94053C2.03202 0.840332 1.17684 1.47149 1.0277 2.45723C0.688389 4.69983 0.226542 11.3213 5.45265 16.5474C10.6788 21.7735 17.3003 21.3117 19.5429 20.9724C20.5286 20.8232 21.1598 19.9681 21.1598 19.0596V14.6875C21.1598 13.7098 20.4529 12.8754 19.4886 12.7147L15.0527 11.9754C14.1866 11.831 13.3277 12.2684 12.935 13.0537L12.5885 13.7467C12.4796 13.72 12.3581 13.6857 12.226 13.6416C11.6057 13.4349 10.7447 13.0111 9.86686 12.1332C8.98903 11.2554 8.5652 10.3944 8.35844 9.7741C8.30257 9.60649 8.26235 9.45578 8.2334 9.32642Z" fill="white"/>
</svg>
