<svg width="25" height="24" viewBox="0 0 25 24" fill="none" xmlns="http://www.w3.org/2000/svg">
<path fill-rule="evenodd" clip-rule="evenodd" d="M0.5 12C0.5 5.37258 5.87258 0 12.5 0C19.1274 0 24.5 5.37258 24.5 12C24.5 18.6274 19.1274 24 12.5 24C5.87258 24 0.5 18.6274 0.5 12ZM6.5 7.70425L6.50448 11.7946L11.4062 11.7667L11.404 7.03638L6.5 7.70425ZM11.4017 12.3117L6.50353 12.28L6.50381 16.3723L11.4055 17.0462L11.4017 12.3117ZM11.9962 6.94901V11.7582L18.4985 11.7065V6L11.9962 6.94901ZM18.5 12.3562L11.987 12.3456L11.9962 17.1194L18.4985 18.0371L18.5 12.3562Z" fill="#0B0B0B"/>
</svg>
