<svg width="24" height="24" viewBox="0 0 24 24" fill="none" xmlns="http://www.w3.org/2000/svg">
<circle cx="12" cy="12" r="12" fill="#0B0B0B"/>
<path fill-rule="evenodd" clip-rule="evenodd" d="M9.7039 6.45672C10.4319 6.15519 11.2121 6 12 6C12.7879 6 13.5681 6.15519 14.2961 6.45672C15.0241 6.75825 15.6855 7.20021 16.2426 7.75736C16.7998 8.31451 17.2417 8.97595 17.5433 9.7039C17.8448 10.4319 18 11.2121 18 12C18 12.7879 17.8448 13.5681 17.5433 14.2961C17.2417 15.0241 16.7998 15.6855 16.2426 16.2426C15.6855 16.7998 15.0241 17.2417 14.2961 17.5433C13.5681 17.8448 12.7879 18 12 18C11.2121 18 10.4319 17.8448 9.7039 17.5433C8.97595 17.2417 8.31451 16.7998 7.75736 16.2426C7.20021 15.6855 6.75825 15.0241 6.45672 14.2961C6.15519 13.5681 6 12.7879 6 12C6 11.2121 6.15519 10.4319 6.45672 9.7039C6.75825 8.97595 7.20021 8.31451 7.75736 7.75736C8.31451 7.20021 8.97595 6.75825 9.7039 6.45672ZM12 6.92308C11.3333 6.92308 10.6731 7.0544 10.0571 7.30953C9.44119 7.56467 8.88151 7.93864 8.41007 8.41007C7.93864 8.88151 7.56467 9.44119 7.30953 10.0571C7.0544 10.6731 6.92308 11.3333 6.92308 12C6.92308 12.6667 7.0544 13.3269 7.30953 13.9429C7.56467 14.5588 7.93864 15.1185 8.41007 15.5899C8.88151 16.0614 9.44119 16.4353 10.0571 16.6905C10.6731 16.9456 11.3333 17.0769 12 17.0769C12.6667 17.0769 13.3269 16.9456 13.9429 16.6905C14.5588 16.4353 15.1185 16.0614 15.5899 15.5899C16.0614 15.1185 16.4353 14.5588 16.6905 13.9429C16.9456 13.3269 17.0769 12.6667 17.0769 12C17.0769 11.3333 16.9456 10.6731 16.6905 10.0571C16.4353 9.44119 16.0614 8.88151 15.5899 8.41007C15.1185 7.93864 14.5588 7.56467 13.9429 7.30953C13.3269 7.0544 12.6667 6.92308 12 6.92308Z" fill="#D63703"/>
<path fill-rule="evenodd" clip-rule="evenodd" d="M9.83768 7.89627C10.3149 6.82255 11.0548 6 12 6C12.9452 6 13.6851 6.82255 14.1623 7.89627C14.6567 9.0085 14.9231 10.4846 14.9231 12C14.9231 13.5154 14.6567 14.9915 14.1623 16.1037C13.6851 17.1774 12.9452 18 12 18C11.0548 18 10.3149 17.1774 9.83768 16.1037C9.34336 14.9915 9.07693 13.5154 9.07693 12C9.07693 10.4846 9.34336 9.0085 9.83768 7.89627ZM12 6.92308C11.6395 6.92308 11.1272 7.26755 10.6812 8.27116C10.2523 9.23626 10 10.5776 10 12C10 13.4224 10.2523 14.7637 10.6812 15.7288C11.1272 16.7324 11.6395 17.0769 12 17.0769C12.3605 17.0769 12.8728 16.7324 13.3188 15.7288C13.7478 14.7637 14 13.4224 14 12C14 10.5776 13.7478 9.23626 13.3188 8.27116C12.8728 7.26755 12.3605 6.92308 12 6.92308Z" fill="#D63703"/>
<path fill-rule="evenodd" clip-rule="evenodd" d="M7.89643 9.83756C8.97041 9.36033 10.4217 9.07703 12 9.07703C13.5783 9.07703 15.0296 9.36033 16.1036 9.83756C16.64 10.0759 17.1027 10.3717 17.4375 10.7236C17.7746 11.0778 18 11.51 18 12.0001C18 12.4903 17.7746 12.9224 17.4375 13.2766C17.1027 13.6285 16.64 13.9243 16.1036 14.1626C15.0296 14.6399 13.5783 14.9232 12 14.9232C10.4217 14.9232 8.97041 14.6399 7.89643 14.1626C7.36002 13.9243 6.89733 13.6285 6.56249 13.2766C6.22538 12.9224 6 12.4903 6 12.0001C6 11.51 6.22538 11.0778 6.56249 10.7236C6.89733 10.3717 7.36002 10.0759 7.89643 9.83756ZM7.23116 11.3599C7.0077 11.5947 6.92308 11.8103 6.92308 12.0001C6.92308 12.19 7.0077 12.4055 7.23116 12.6403C7.4569 12.8775 7.80536 13.1121 8.27126 13.3191C9.2019 13.7326 10.5199 14.0001 12 14.0001C13.4801 14.0001 14.7981 13.7326 15.7287 13.3191C16.1946 13.1121 16.5431 12.8775 16.7688 12.6403C16.9923 12.4055 17.0769 12.19 17.0769 12.0001C17.0769 11.8103 16.9923 11.5947 16.7688 11.3599C16.5431 11.1227 16.1946 10.8881 15.7287 10.6811C14.7981 10.2676 13.4801 10.0001 12 10.0001C10.5199 10.0001 9.2019 10.2676 8.27126 10.6811C7.80536 10.8881 7.4569 11.1227 7.23116 11.3599Z" fill="#D63703"/>
</svg>
