<svg width="24" height="24" fill="none" xmlns="http://www.w3.org/2000/svg"><path fill-rule="evenodd" clip-rule="evenodd" d="M12 24C5.373 24 0 18.627 0 12S5.373 0 12 0s12 5.373 12 12-5.373 12-12 12Zm2.565-11.866L7.343 4.817c-.299.067-.543.329-.543.855v12.95c0 .494.192.843.548.877l7.217-7.365Zm.326-.348 1.93-1.955-8.888-4.912a.847.847 0 0 0-.59-.102l7.548 6.969Zm.332.336 2.178 1.98 2.572-1.426c.356-.197.73-.701 0-1.104l-2.56-1.415-2.19 1.965Zm-7.875 7.377c.163.021.359-.022.585-.147.466-.26 5.48-3.038 8.89-4.93l-1.932-1.996L7.348 19.5Z" fill="#0B0B0B"/></svg>