<svg width="600" height="600" fill="none" xmlns="http://www.w3.org/2000/svg"><rect width="600" height="600" rx="20" fill="url(#a)"/><g clip-path="url(#b)"><path d="M298.197 439.278A2054.798 2054.798 0 0 1 520.237 451a868.184 868.184 0 0 0-222.04-28.204A868.189 868.189 0 0 0 76.157 451a2054.81 2054.81 0 0 1 222.04-11.722Z" fill="#fff"/><path d="M159.502 323.471h-58.279c5.041 61.849 22.293 111.415 63.826 111.415h66.059c-50.063 0-64.646-56.005-71.606-111.415Z" fill="url(#c)"/><path d="M101.222 323.471c5.041 61.849 22.293 111.415 63.826 111.415h-14.757c-36.841 0-54.075-53.048-61.053-111.415h11.984ZM429.303 356.171l16.065.42c-.226 20.995-5.442 70.492-58 78.295h-31.032c74.066-4.584 76.019-48.884 76.281-71.192l-20.775-.49 57.25-80.114-39.789 73.081ZM325.95 294.48l16.066.77c-.227 38.491-5.669 125.289-64.821 139.636h-25.101c74.066-8.451 76.019-89.912 76.281-130.941l-20.776-.892 57.251-87.008-38.9 78.435Z" fill="#fff"/><path d="m469.093 283.09-39.789 73.081 16.065.42c-.226 20.995-5.442 70.492-58 78.295h49.784c51.494-2.1 65.623-39.996 66.705-72.364l20.932-.245-55.697-79.187Z" fill="url(#d)"/><path d="m420.599 301.356-55.82-85.311-38.899 78.435 16.066.77c-.227 38.491-5.67 125.289-64.821 139.636h55.715c51.494-3.867 65.623-73.571 66.705-133.093l21.054-.437Z" fill="url(#e)"/><path d="M318.866 235.186 263.047 149l-35.952 55.83 36.021-55.813-39.789 78.138 16.066 1.137c-.244 57.597-1.971 186.561-67.838 206.594h59.64c51.511-5.791 65.64-110.033 66.721-199.035l20.95-.665Z" fill="url(#f)"/><path d="m223.328 227.155 16.066 1.137c-.245 57.597-1.972 186.561-67.839 206.594h-21.211c74.083-12.632 76.037-134.457 76.281-195.834l-20.758-1.312 57.25-88.74-39.789 78.155Z" fill="#fff"/></g><defs><linearGradient id="a" x1="600" y1="300" x2="0" y2="300" gradientUnits="userSpaceOnUse"><stop stop-color="#EE4A14"/><stop offset="1" stop-color="#FD652C"/></linearGradient><linearGradient id="c" x1="166.165" y1="434.886" x2="166.165" y2="323.471" gradientUnits="userSpaceOnUse"><stop stop-color="#F09D81"/><stop offset="1" stop-color="#FB956F"/></linearGradient><linearGradient id="d" x1="456.08" y1="434.886" x2="456.08" y2="283.09" gradientUnits="userSpaceOnUse"><stop stop-color="#F09D81"/><stop offset="1" stop-color="#FB956F"/></linearGradient><linearGradient id="e" x1="348.862" y1="434.886" x2="348.862" y2="216.045" gradientUnits="userSpaceOnUse"><stop stop-color="#F09D81"/><stop offset="1" stop-color="#FB956F"/></linearGradient><linearGradient id="f" x1="245.211" y1="434.886" x2="245.211" y2="149" gradientUnits="userSpaceOnUse"><stop stop-color="#F09D81"/><stop offset="1" stop-color="#FB956F"/></linearGradient><clipPath id="b"><path fill="#fff" transform="translate(76.156 149)" d="M0 0h448.686v302H0z"/></clipPath></defs></svg>