<svg width="368" height="70" fill="none" xmlns="http://www.w3.org/2000/svg"><g clip-path="url(#a)"><path d="M50.971 66.636a471.784 471.784 0 0 1 50.972 2.69 199.3 199.3 0 0 0-50.972-6.474A199.297 199.297 0 0 0 0 69.327a471.779 471.779 0 0 1 50.971-2.691Z" fill="#fff"/><path d="M19.133 40.051H5.754c1.158 14.198 5.118 25.577 14.652 25.577h15.165c-11.493 0-14.84-12.857-16.438-25.577Z" fill="url(#b)"/><path d="M5.754 40.051c1.158 14.198 5.118 25.577 14.652 25.577H17.02C8.56 65.628 4.604 53.45 3.002 40.05h2.751ZM81.068 47.558l3.688.097c-.052 4.82-1.25 16.182-13.314 17.973h-7.124c17.002-1.052 17.45-11.222 17.511-16.343l-4.77-.112 13.143-18.391-9.134 16.776ZM57.342 33.396l3.688.177c-.052 8.836-1.301 28.761-14.88 32.055h-5.762c17.002-1.94 17.45-20.64 17.51-30.059l-4.768-.205 13.142-19.973-8.93 18.005Z" fill="#fff"/><path d="m90.202 30.782-9.134 16.776 3.688.097c-.052 4.82-1.25 16.182-13.314 17.973H82.87c11.821-.482 15.064-9.181 15.313-16.612l4.805-.056-12.786-18.178Z" fill="url(#c)"/><path d="M79.07 34.974 66.256 15.392l-8.93 18.005 3.688.177c-.052 8.836-1.301 28.761-14.88 32.055h12.79c11.82-.888 15.064-16.89 15.313-30.553l4.833-.1Z" fill="url(#d)"/><path d="M55.717 19.785 42.903 0 34.65 12.816 42.919.004l-9.134 17.937 3.688.261C37.417 31.424 37.02 61.03 21.9 65.628h13.69c11.825-1.33 15.07-25.26 15.317-45.69l4.81-.153Z" fill="url(#e)"/><path d="m33.785 17.941 3.688.261C37.417 31.424 37.02 61.03 21.9 65.628h-4.87c17.007-2.9 17.456-30.866 17.512-44.956l-4.766-.3L42.92 0l-9.134 17.941Z" fill="#fff"/></g><path d="m322.683 60.178 15.839-24.89-15.736-24.515h12.197l10.341 17.29h.619l10.444-17.29H368L351.68 35.46l16.08 24.72h-11.819L345.29 43.436h-.618l-10.789 16.742h-11.2ZM301.004 29.227c-2.314 0-4.226.742-5.738 2.226-1.489 1.483-2.325 3.446-2.508 5.889h16.148c-.115-2.511-.882-4.486-2.302-5.923-1.397-1.461-3.264-2.192-5.6-2.192Zm8.108 20.2h9.311c-.756 3.584-2.68 6.415-5.772 8.492-3.07 2.054-6.918 3.081-11.544 3.081-5.772 0-10.273-1.712-13.503-5.136-3.229-3.446-4.844-8.24-4.844-14.38 0-6.14 1.626-10.99 4.879-14.55 3.252-3.561 7.696-5.342 13.33-5.342 5.589 0 9.941 1.678 13.056 5.033 3.138 3.355 4.707 8.035 4.707 14.038v3.047h-26.008v.513c.068 2.808.87 5.033 2.405 6.677 1.557 1.62 3.641 2.43 6.253 2.43 1.969 0 3.618-.33 4.947-.992 1.328-.685 2.256-1.655 2.783-2.91ZM252.354 60.76c-4.764 0-8.532-1.746-11.303-5.238-2.749-3.492-4.123-8.251-4.123-14.277 0-6.003 1.374-10.74 4.123-14.209 2.771-3.492 6.539-5.238 11.303-5.238 2.565 0 4.844.593 6.837 1.78 1.993 1.164 3.482 2.785 4.466 4.862h.585V8h9.997v52.178h-9.688v-5.923h-.619c-1.007 2.032-2.531 3.63-4.569 4.793-2.039 1.142-4.375 1.712-7.009 1.712Zm9.689-27.595c-1.535-2.009-3.631-3.013-6.288-3.013-2.657 0-4.752.993-6.287 2.978-1.512 1.963-2.268 4.68-2.268 8.15 0 3.491.756 6.23 2.268 8.216 1.512 1.963 3.608 2.945 6.287 2.945 2.68 0 4.776-.982 6.288-2.945 1.534-1.986 2.302-4.713 2.302-8.183 0-3.446-.768-6.162-2.302-8.148ZM210.954 53.262c2.313 0 4.249-.65 5.806-1.951 1.558-1.301 2.337-2.91 2.337-4.828V43.71l-7.662.48c-4.26.296-6.39 1.814-6.39 4.553 0 1.392.538 2.5 1.614 3.32 1.1.8 2.531 1.2 4.295 1.2Zm-3.298 7.498c-3.665 0-6.654-1.038-8.967-3.115-2.291-2.077-3.436-4.828-3.436-8.252 0-3.4 1.26-6.071 3.779-8.011 2.543-1.963 6.173-3.082 10.891-3.356l9.174-.547v-3.082c0-1.575-.55-2.784-1.649-3.629-1.1-.867-2.68-1.301-4.742-1.301-3.71 0-5.989 1.164-6.837 3.492h-9.207c.32-3.492 1.969-6.254 4.947-8.285 3-2.055 6.883-3.082 11.647-3.082 4.993 0 8.853 1.119 11.578 3.356 2.749 2.236 4.123 5.386 4.123 9.45v25.78h-9.689v-4.93h-.618c-.985 1.735-2.451 3.093-4.398 4.074-1.947.959-4.145 1.438-6.596 1.438ZM167.321 60.178V22.414h9.688v6.026h.619c.504-1.917 1.649-3.504 3.435-4.76 1.81-1.255 3.906-1.882 6.288-1.882 1.718 0 3.023.16 3.916.48v9.072c-1.053-.41-2.634-.616-4.741-.616-2.771 0-5.005.765-6.7 2.294-1.672 1.53-2.508 3.606-2.508 6.231v20.92h-9.997ZM148.252 60.178h-10.375V19.608H123v-8.834h40.129v8.834h-14.877v40.572Z" fill="#fff"/><defs><linearGradient id="b" x1="20.663" y1="65.628" x2="20.663" y2="40.051" gradientUnits="userSpaceOnUse"><stop stop-color="#88290A"/><stop offset="1" stop-color="#FD652C"/></linearGradient><linearGradient id="c" x1="87.215" y1="65.628" x2="87.215" y2="30.782" gradientUnits="userSpaceOnUse"><stop stop-color="#88290A"/><stop offset="1" stop-color="#FD652C"/></linearGradient><linearGradient id="d" x1="62.602" y1="65.628" x2="62.602" y2="15.391" gradientUnits="userSpaceOnUse"><stop stop-color="#88290A"/><stop offset="1" stop-color="#FD652C"/></linearGradient><linearGradient id="e" x1="38.808" y1="65.628" x2="38.808" y2="0" gradientUnits="userSpaceOnUse"><stop stop-color="#88290A"/><stop offset="1" stop-color="#FD652C"/></linearGradient><clipPath id="a"><path fill="#fff" d="M0 0h103v69.327H0z"/></clipPath></defs></svg>