<svg width="320" height="61" fill="none" xmlns="http://www.w3.org/2000/svg"><g clip-path="url(#a)"><path d="M44.323 57.944c14.806-.02 29.601.761 44.323 2.34a173.302 173.302 0 0 0-44.323-5.63A173.302 173.302 0 0 0 0 60.284a410.23 410.23 0 0 1 44.323-2.34Z" fill="#fff"/><path d="M16.637 34.827H5.004c1.006 12.346 4.45 22.24 12.74 22.24h13.187c-9.993 0-12.904-11.179-14.294-22.24Z" fill="url(#b)"/><path d="M5.004 34.827c1.006 12.346 4.45 22.24 12.74 22.24H14.8c-7.354 0-10.795-10.589-12.187-22.24h2.392ZM70.494 41.355l3.207.084c-.045 4.19-1.086 14.071-11.578 15.629H55.93c14.784-.915 15.174-9.758 15.227-14.211l-4.148-.098 11.429-15.992-7.943 14.588ZM49.863 29.04l3.207.154c-.045 7.683-1.132 25.01-12.94 27.874h-5.01C49.905 55.38 50.295 39.12 50.347 30.93l-4.147-.178 11.428-17.369-7.765 15.657Z" fill="#fff"/><path d="m78.437 26.767-7.943 14.588 3.207.084c-.045 4.19-1.086 14.071-11.578 15.629h9.938c10.279-.42 13.1-7.984 13.315-14.445l4.179-.05-11.118-15.806Z" fill="url(#c)"/><path d="m68.757 30.413-11.143-17.03-7.765 15.657 3.207.154c-.045 7.683-1.132 25.01-12.94 27.874h11.122c10.28-.772 13.1-14.686 13.316-26.568l4.203-.087Z" fill="url(#d)"/><path d="M48.45 17.204 37.306 0 30.13 11.145 37.32.003l-7.942 15.598 3.207.227c-.049 11.497-.394 37.24-13.542 41.24h11.905c10.283-1.156 13.103-21.965 13.32-39.731l4.181-.133Z" fill="url(#e)"/><path d="m29.378 15.601 3.207.227c-.049 11.497-.394 37.24-13.542 41.24H14.81c14.788-2.522 15.178-26.84 15.227-39.092l-4.144-.262L37.322 0l-7.943 15.601Z" fill="#fff"/></g><path d="m280.594 52.33 13.773-21.645-13.683-21.317h10.605l8.993 15.035h.538l9.082-15.035H320l-14.191 21.466 13.982 21.495h-10.277l-9.262-14.558h-.538l-9.381 14.558h-9.739ZM261.742 25.415c-2.011 0-3.674.645-4.989 1.935-1.295 1.29-2.022 2.997-2.181 5.121h14.042c-.1-2.183-.767-3.9-2.002-5.15-1.215-1.27-2.838-1.906-4.87-1.906Zm7.051 17.566h8.096c-.657 3.116-2.33 5.577-5.019 7.383-2.669 1.786-6.015 2.68-10.038 2.68-5.019 0-8.933-1.49-11.741-4.466-2.809-2.997-4.213-7.165-4.213-12.505 0-5.339 1.414-9.556 4.243-12.653 2.828-3.096 6.692-4.644 11.591-4.644 4.86 0 8.644 1.459 11.353 4.376 2.729 2.918 4.093 6.987 4.093 12.207v2.65h-22.616v.446c.06 2.442.757 4.377 2.091 5.806 1.355 1.409 3.167 2.114 5.438 2.114 1.713 0 3.147-.288 4.302-.864 1.155-.595 1.962-1.439 2.42-2.53ZM219.438 52.835c-4.143 0-7.419-1.518-9.829-4.555-2.39-3.037-3.585-7.175-3.585-12.415 0-5.22 1.195-9.338 3.585-12.355 2.41-3.037 5.686-4.555 9.829-4.555 2.231 0 4.213.516 5.946 1.548a9.512 9.512 0 0 1 3.883 4.227h.508V6.957h8.694v45.372h-8.425v-5.15h-.538c-.876 1.766-2.2 3.155-3.973 4.167-1.773.993-3.804 1.49-6.095 1.49Zm8.425-23.996c-1.334-1.747-3.157-2.62-5.467-2.62-2.31 0-4.133.863-5.467 2.59-1.315 1.707-1.972 4.069-1.972 7.086 0 3.037.657 5.418 1.972 7.145 1.314 1.707 3.137 2.56 5.467 2.56 2.33 0 4.153-.853 5.467-2.56 1.335-1.727 2.002-4.099 2.002-7.115 0-2.997-.667-5.36-2.002-7.086ZM183.438 46.315c2.012 0 3.695-.566 5.049-1.697 1.355-1.131 2.032-2.53 2.032-4.198V38.01l-6.662.416c-3.705.259-5.557 1.578-5.557 3.96 0 1.21.468 2.174 1.404 2.888.956.695 2.201 1.042 3.734 1.042Zm-2.868 6.52c-3.186 0-5.786-.903-7.797-2.71-1.992-1.805-2.988-4.197-2.988-7.174 0-2.958 1.096-5.28 3.286-6.967 2.211-1.707 5.368-2.68 9.471-2.918l7.977-.476v-2.68c0-1.369-.478-2.42-1.434-3.155-.956-.754-2.33-1.131-4.123-1.131-3.227 0-5.208 1.012-5.945 3.036h-8.007c.279-3.037 1.713-5.438 4.302-7.205 2.609-1.786 5.985-2.68 10.128-2.68 4.342 0 7.698.974 10.068 2.919 2.39 1.945 3.585 4.684 3.585 8.217v22.418h-8.425v-4.287h-.538c-.856 1.508-2.131 2.69-3.824 3.543-1.693.833-3.605 1.25-5.736 1.25ZM145.496 52.329V19.49h8.425v5.24h.538c.438-1.667 1.434-3.046 2.987-4.138 1.574-1.092 3.396-1.637 5.468-1.637 1.493 0 2.629.139 3.405.416v7.89c-.916-.357-2.29-.536-4.122-.536-2.41 0-4.352.665-5.826 1.995-1.454 1.33-2.181 3.136-2.181 5.418v18.19h-8.694ZM128.915 52.33h-9.022V17.05h-12.937V9.367h34.895v7.681h-12.936v35.28Z" fill="#fff"/><defs><linearGradient id="b" x1="17.967" y1="57.068" x2="17.967" y2="34.827" gradientUnits="userSpaceOnUse"><stop stop-color="#88290A"/><stop offset="1" stop-color="#FD652C"/></linearGradient><linearGradient id="c" x1="75.839" y1="57.068" x2="75.839" y2="26.767" gradientUnits="userSpaceOnUse"><stop stop-color="#88290A"/><stop offset="1" stop-color="#FD652C"/></linearGradient><linearGradient id="d" x1="54.437" y1="57.068" x2="54.437" y2="13.383" gradientUnits="userSpaceOnUse"><stop stop-color="#88290A"/><stop offset="1" stop-color="#FD652C"/></linearGradient><linearGradient id="e" x1="33.746" y1="57.068" x2="33.746" y2="0" gradientUnits="userSpaceOnUse"><stop stop-color="#88290A"/><stop offset="1" stop-color="#FD652C"/></linearGradient><clipPath id="a"><path fill="#fff" d="M0 0h89.565v60.284H0z"/></clipPath></defs></svg>