<svg width="24" height="24" fill="none" xmlns="http://www.w3.org/2000/svg"><path fill-rule="evenodd" clip-rule="evenodd" d="M0 12C0 5.373 5.373 0 12 0s12 5.373 12 12-5.373 12-12 12S0 18.627 0 12Zm13.954-4.92c.458-.59.805-1.427.68-2.28-.75.052-1.625.531-2.135 1.156-.466.565-.849 1.407-.7 2.224.82.026 1.664-.465 2.155-1.1ZM18 15.108c-2.383-.906-2.765-4.293-.406-5.594-.72-.902-1.73-1.424-2.685-1.424-1.26 0-1.793.603-2.668.603-.903 0-1.588-.602-2.678-.602-1.07 0-2.21.654-2.933 1.773-1.016 1.575-.842 4.537.805 7.06.589.902 1.375 1.917 2.404 1.926.915.009 1.174-.588 2.415-.594 1.24-.008 1.476.601 2.39.591 1.03-.008 1.86-1.132 2.449-2.035.422-.647.58-.973.907-1.704Z" fill="#0B0B0B"/></svg>