<svg width="22" height="22" fill="none" xmlns="http://www.w3.org/2000/svg"><path d="M2.993 2.84h4.49L8.93 6.458l-2.325 1.55a1 1 0 0 0-.445.832c.002.094 0 .001 0 .001v.021a2.128 2.128 0 0 0 .006.135c.005.082.016.193.035.329.039.27.114.642.26 1.08.293.88.87 2.02 1.992 3.141 1.122 1.123 2.26 1.699 3.14 1.992.439.146.81.221 1.082.26a4.424 4.424 0 0 0 .463.041h.02s.112-.006.002 0a1 1 0 0 0 .894-.553l.67-1.339 4.436.74v4.32c-2.111.305-7.813.605-12.293-3.875-4.48-4.48-4.18-10.182-3.874-12.293Zm5.24 6.486 1.806-1.204a2 2 0 0 0 .748-2.406L9.34 2.098A2 2 0 0 0 7.483.84H2.94c-.909 0-1.764.631-1.913 1.617-.34 2.243-.801 8.864 4.425 14.09 5.226 5.226 11.847 4.765 14.09 4.425.986-.149 1.617-1.004 1.617-1.912v-4.372a2 2 0 0 0-1.671-1.973l-4.436-.74a2 2 0 0 0-2.118 1.079l-.347.693a4.62 4.62 0 0 1-.362-.105c-.62-.207-1.481-.63-2.36-1.509-.877-.878-1.3-1.739-1.508-2.359a4.585 4.585 0 0 1-.125-.448Z" fill="#fff"/></svg>