<svg width="24" height="24" fill="none" xmlns="http://www.w3.org/2000/svg"><circle cx="12" cy="12" r="12" fill="#0B0B0B"/><path fill-rule="evenodd" clip-rule="evenodd" d="M9.704 6.457a6 6 0 1 1 4.592 11.087A6 6 0 0 1 9.704 6.457ZM12 6.923a5.078 5.078 0 1 0 0 10.155 5.078 5.078 0 0 0 0-10.155Z" fill="#fff"/><path fill-rule="evenodd" clip-rule="evenodd" d="M9.838 7.896C10.315 6.823 11.055 6 12 6c.945 0 1.685.823 2.162 1.896.495 1.112.761 2.589.761 4.104 0 1.515-.266 2.992-.76 4.104C13.684 17.177 12.944 18 12 18c-.945 0-1.685-.823-2.162-1.896-.495-1.112-.761-2.589-.761-4.104 0-1.515.266-2.992.76-4.104ZM12 6.923c-.36 0-.873.345-1.319 1.348C10.252 9.236 10 10.578 10 12c0 1.422.252 2.764.681 3.729.446 1.003.959 1.348 1.319 1.348s.873-.345 1.319-1.348c.429-.965.681-2.307.681-3.729 0-1.422-.252-2.764-.681-3.729-.446-1.003-.959-1.348-1.319-1.348Z" fill="#fff"/><path fill-rule="evenodd" clip-rule="evenodd" d="M7.896 9.838C8.97 9.36 10.422 9.077 12 9.077c1.578 0 3.03.283 4.104.76.536.239.999.535 1.334.887.337.354.562.786.562 1.276s-.225.922-.563 1.277c-.334.352-.797.647-1.333.886-1.074.477-2.526.76-4.104.76-1.578 0-3.03-.283-4.104-.76-.536-.239-.999-.534-1.334-.886C6.225 12.922 6 12.49 6 12c0-.49.225-.922.562-1.276.335-.352.798-.648 1.334-.886Zm-.665 1.522c-.223.235-.308.45-.308.64s.085.405.308.64c.226.237.574.472 1.04.68.93.413 2.249.68 3.729.68s2.798-.267 3.729-.68c.466-.208.814-.443 1.04-.68.223-.235.308-.45.308-.64s-.085-.405-.308-.64c-.226-.237-.574-.472-1.04-.679-.93-.413-2.249-.68-3.729-.68s-2.798.267-3.729.68c-.466.207-.814.442-1.04.679Z" fill="#fff"/></svg>